<?xml version="1.0" encoding="utf-8"?>
<!-- Generator: Adobe Illustrator 16.0.0, SVG Export Plug-In . SVG Version: 6.00 Build 0)  -->
<!DOCTYPE svg PUBLIC "-//W3C//DTD SVG 1.1//EN" "http://www.w3.org/Graphics/SVG/1.1/DTD/svg11.dtd">
<svg version="1.1" id="Layer_1" xmlns="http://www.w3.org/2000/svg" xmlns:xlink="http://www.w3.org/1999/xlink" x="0px" y="0px"
	 width="100px" height="100px" viewBox="0 0 100 100" enable-background="new 0 0 100 100" xml:space="preserve">
<path fill="#F8D5B2" stroke="#010101" stroke-width="4" stroke-miterlimit="10" d="M15.158,78.898c0,0,7.494-7.084,8.619-10.232
	c3.095-8.669-1.327-25.979,2.836-34.189C30.88,26.059,42.377,9.756,51.523,7.421C69.021,2.954,84.643,20.19,87.335,30.693
	c1.569,6.128-0.233,18.511-4.849,28.818c-4.27,9.537-14.438,17.22-16.695,22.619c-1.123,2.685-2.693,11.312-2.693,11.312"/>
<path fill="none" stroke="#010101" stroke-miterlimit="10" d="M57.585,87.883c0,0-13.544-12.667-32.454-11.968"/>
<path fill="#AF0000" stroke="#010101" stroke-miterlimit="10" d="M76.627,50.846c3.482-7.599,4.842-16.727,3.658-21.245
	C78.254,21.857,66.467,9.15,53.262,12.444c-6.9,1.721-15.576,13.741-18.795,19.946"/>
</svg>
